<?xml version="1.0" encoding="UTF-8" standalone="no"?>
<svg
   xmlns:dc="http://purl.org/dc/elements/1.1/"
   xmlns:cc="http://creativecommons.org/ns#"
   xmlns:rdf="http://www.w3.org/1999/02/22-rdf-syntax-ns#"
   xmlns:svg="http://www.w3.org/2000/svg"
   xmlns="http://www.w3.org/2000/svg"
   xmlns:sodipodi="http://sodipodi.sourceforge.net/DTD/sodipodi-0.dtd"
   xmlns:inkscape="http://www.inkscape.org/namespaces/inkscape"
   height="48"
   viewBox="0 0 48 48"
   width="48"
   version="1.1"
   id="svg6"
   sodipodi:docname="notify_gray.svg"
   inkscape:version="0.92.4 (5da689c313, 2019-01-14)">
  <metadata
     id="metadata12">
    <rdf:RDF>
      <cc:Work
         rdf:about="">
        <dc:format>image/svg+xml</dc:format>
        <dc:type
           rdf:resource="http://purl.org/dc/dcmitype/StillImage" />
      </cc:Work>
    </rdf:RDF>
  </metadata>
  <defs
     id="defs10" />
  <sodipodi:namedview
     pagecolor="#ffffff"
     bordercolor="#666666"
     borderopacity="1"
     objecttolerance="10"
     gridtolerance="10"
     guidetolerance="10"
     inkscape:pageopacity="0"
     inkscape:pageshadow="2"
     inkscape:window-width="915"
     inkscape:window-height="720"
     id="namedview8"
     showgrid="false"
     inkscape:zoom="4.9166667"
     inkscape:cx="24"
     inkscape:cy="24"
     inkscape:window-x="0"
     inkscape:window-y="0"
     inkscape:window-maximized="0"
     inkscape:current-layer="svg6" />
  <path
     d="M0 0h48v48h-48z"
     fill="none"
     id="path2" />
  <path
     fill="gray"
     d="M36 14l-2.83-2.83-12.68 12.69 2.83 2.83 12.68-12.69zm8.49-2.83l-21.18 21.17-8.34-8.34-2.83 2.83 11.17 11.17 24-24-2.82-2.83zm-43.66 15.66l11.17 11.17 2.83-2.83-11.17-11.17-2.83 2.83z"
     id="path4" />
  <path
     style="fill:#ffffff;stroke-width:0.20338982"
     d="m 17.799237,32.382289 -5.486845,-5.489669 1.314524,-1.326314 1.314524,-1.326313 4.07347,4.069834 c 2.240408,2.238409 4.16385,4.069834 4.274316,4.069834 0.110466,0 4.937355,-4.735852 10.726421,-10.524116 l 10.525577,-10.524115 1.321989,1.321991 1.321991,1.32199 -11.949561,11.948274 -11.949561,11.948272 z"
     id="path14"
     inkscape:connector-curvature="0" />
  <path
     style="fill:#ffffff;stroke-width:0.20338982"
     d="m 21.965704,25.158921 -1.315323,-1.32712 6.250346,-6.250345 6.250345,-6.250346 1.322443,1.322442 1.322442,1.322443 -6.257465,6.255023 -6.257465,6.255023 z"
     id="path16"
     inkscape:connector-curvature="0" />
  <path
     style="fill:#ffffff;stroke-width:0.20338982"
     d="m 6.4539608,32.223477 -5.441519,-5.44432 1.3265296,-1.314739 1.3265297,-1.314738 5.487262,5.484439 5.4872619,5.484439 -1.263289,1.274619 c -0.69481,0.701041 -1.312332,1.27462 -1.372273,1.27462 -0.05994,0 -2.5576666,-2.449944 -5.5505022,-5.44432 z"
     id="path18"
     inkscape:connector-curvature="0" />
</svg>
