<?xml version="1.0" encoding="UTF-8" standalone="no"?>
<svg
   xmlns:dc="http://purl.org/dc/elements/1.1/"
   xmlns:cc="http://creativecommons.org/ns#"
   xmlns:rdf="http://www.w3.org/1999/02/22-rdf-syntax-ns#"
   xmlns:svg="http://www.w3.org/2000/svg"
   xmlns="http://www.w3.org/2000/svg"
   xmlns:sodipodi="http://sodipodi.sourceforge.net/DTD/sodipodi-0.dtd"
   xmlns:inkscape="http://www.inkscape.org/namespaces/inkscape"
   height="48"
   viewBox="0 0 48 48"
   width="48"
   version="1.1"
   id="svg6"
   sodipodi:docname="support_gray.svg"
   inkscape:version="0.92.4 (5da689c313, 2019-01-14)">
  <metadata
     id="metadata12">
    <rdf:RDF>
      <cc:Work
         rdf:about="">
        <dc:format>image/svg+xml</dc:format>
        <dc:type
           rdf:resource="http://purl.org/dc/dcmitype/StillImage" />
      </cc:Work>
    </rdf:RDF>
  </metadata>
  <defs
     id="defs10" />
  <sodipodi:namedview
     pagecolor="#ffffff"
     bordercolor="#666666"
     borderopacity="1"
     objecttolerance="10"
     gridtolerance="10"
     guidetolerance="10"
     inkscape:pageopacity="0"
     inkscape:pageshadow="2"
     inkscape:window-width="951"
     inkscape:window-height="759"
     id="namedview8"
     showgrid="false"
     inkscape:zoom="4.9166667"
     inkscape:cx="24"
     inkscape:cy="24"
     inkscape:window-x="31"
     inkscape:window-y="14"
     inkscape:window-maximized="0"
     inkscape:current-layer="svg6" />
  <path
     d="M0 0h48v48h-48z"
     fill="none"
     id="path2" />
  <path
     fill="gray"
     d="M23.99 4c-11.05 0-19.99 8.95-19.99 20s8.94 20 19.99 20c11.05 0 20.01-8.95 20.01-20s-8.96-20-20.01-20zm13.85 12h-5.9c-.65-2.5-1.56-4.9-2.76-7.12 3.68 1.26 6.74 3.81 8.66 7.12zm-13.84-7.93c1.67 2.4 2.97 5.07 3.82 7.93h-7.64c.85-2.86 2.15-5.53 3.82-7.93zm-15.48 19.93c-.33-1.28-.52-2.62-.52-4s.19-2.72.52-4h6.75c-.16 1.31-.27 2.64-.27 4 0 1.36.11 2.69.28 4h-6.76zm1.63 4h5.9c.65 2.5 1.56 4.9 2.76 7.13-3.68-1.26-6.74-3.82-8.66-7.13zm5.9-16h-5.9c1.92-3.31 4.98-5.87 8.66-7.13-1.2 2.23-2.11 4.63-2.76 7.13zm7.95 23.93c-1.66-2.4-2.96-5.07-3.82-7.93h7.64c-.86 2.86-2.16 5.53-3.82 7.93zm4.68-11.93h-9.36c-.19-1.31-.32-2.64-.32-4 0-1.36.13-2.69.32-4h9.36c.19 1.31.32 2.64.32 4 0 1.36-.13 2.69-.32 4zm.51 11.12c1.2-2.23 2.11-4.62 2.76-7.12h5.9c-1.93 3.31-4.99 5.86-8.66 7.12zm3.53-11.12c.16-1.31.28-2.64.28-4 0-1.36-.11-2.69-.28-4h6.75c.33 1.28.53 2.62.53 4s-.19 2.72-.53 4h-6.75z"
     id="path4" />
  <path
     style="fill:#ffffff;stroke-width:0.20338982"
     d="M 21.312152,43.707128 C 10.192818,42.085375 2.5061501,31.614574 4.4119904,20.685677 6.4723953,8.8704407 18.499591,1.4508425 29.809731,5.0177663 c 3.405791,1.0740982 6.009614,2.6971266 8.468595,5.2786927 2.587227,2.716202 4.077584,5.387073 5.02282,9.001395 0.424718,1.624012 0.511643,2.422863 0.511643,4.702146 0,2.279284 -0.08693,3.078134 -0.511643,4.702145 -0.580204,2.218542 -1.570481,4.485773 -2.71604,6.218349 -1.046562,1.582851 -3.550126,4.184482 -5.052903,5.250826 -4.095726,2.906256 -9.434599,4.233765 -14.220051,3.535808 z m 4.439761,-6.486789 c 0.944774,-1.827799 1.787436,-3.800054 2.0207,-4.72945 l 0.140221,-0.558686 h -3.868281 c -3.272517,0 -3.868282,0.04617 -3.868282,0.299791 0,0.777449 1.783366,4.715258 3.020429,6.66934 l 0.742283,1.172518 0.459661,-0.562349 c 0.252814,-0.309293 0.861785,-1.340317 1.353269,-2.291164 z m -6.833417,1.881356 c -0.03923,-0.0839 -0.375374,-0.79322 -0.746977,-1.576271 -0.371603,-0.783051 -0.978236,-2.338983 -1.348074,-3.457627 l -0.672433,-2.033899 -3.099074,-0.05629 -3.0990745,-0.05629 0.3589375,0.564765 c 1.654764,2.603664 3.738946,4.490485 6.478365,5.864896 1.752321,0.879169 2.274538,1.063367 2.12833,0.750716 z m 11.724096,-0.439102 c 1.620313,-0.734687 2.937956,-1.62828 4.361703,-2.958007 1.090448,-1.018438 2.866891,-3.243795 2.866891,-3.591368 0,-0.09956 -1.35,-0.180815 -3,-0.180573 l -3,4.07e-4 -0.564158,1.779221 c -0.310288,0.978572 -0.928084,2.598507 -1.372882,3.599856 -0.444797,1.001349 -0.808722,1.847959 -0.808722,1.881356 0,0.130214 0.258775,0.03966 1.517168,-0.530925 z M 15.19322,24 V 19.932203 H 11.795657 8.3980934 L 8.2363348,20.694915 C 8.1473677,21.114407 8.0745763,22.601695 8.0745763,24 c 0,1.398305 0.072791,2.885593 0.1617585,3.305085 l 0.1617586,0.762712 h 3.3975636 3.397563 z m 13.670288,3.508475 c 0.198301,-0.726769 0.198301,-6.290181 0,-7.01695 l -0.152613,-0.559322 h -4.748141 -4.748141 l -0.12934,0.943642 C 19.014135,21.394848 18.955932,22.800718 18.955932,24 c 0,1.199282 0.0582,2.605151 0.129341,3.124155 l 0.12934,0.943642 h 4.748141 4.748141 z m 10.901508,-0.152543 c 0.10665,-0.335593 0.19391,-1.845763 0.19391,-3.355932 0,-1.510169 -0.08726,-3.020339 -0.19391,-3.355932 l -0.193908,-0.61017 -3.512731,-0.05573 -3.512732,-0.05573 0.146764,0.868682 c 0.08072,0.477774 0.146763,1.921771 0.146763,3.208881 0,1.28711 -0.06604,2.731106 -0.146763,3.208881 l -0.146764,0.868682 3.512732,-0.05573 3.512731,-0.05573 z M 16.821587,13.915813 c 0.368816,-1.127659 0.993464,-2.728186 1.388106,-3.556727 0.394642,-0.8285408 0.67787,-1.5460997 0.629394,-1.594575 -0.04847,-0.048475 -0.934389,0.3333232 -1.968697,0.8484413 -2.807552,1.3982497 -4.884574,3.2670097 -6.558589,5.9009647 l -0.3589375,0.564765 3.0990745,-0.05629 3.099074,-0.05629 z m 11.083498,2.051099 c 0,-0.786255 -2.208594,-5.59444 -3.299854,-7.1838956 l -0.6028,-0.8780005 -0.488743,0.6624528 c -1.061308,1.4385233 -3.337417,6.3621723 -3.337417,7.2194583 0,0.229044 0.713049,0.28087 3.864407,0.28087 2.125424,0 3.864407,-0.0454 3.864407,-0.100885 z m 9.966101,-0.08013 c 0,-0.347571 -1.776443,-2.57293 -2.866891,-3.591367 -0.604566,-0.564642 -1.539681,-1.328062 -2.078034,-1.696491 -1.012328,-0.6927981 -3.582128,-1.9362759 -3.7189,-1.7995048 -0.04267,0.042676 0.28508,0.8946718 0.728345,1.8933248 0.443266,0.998652 1.05619,2.616579 1.362049,3.595393 l 0.556111,1.779661 h 3.00866 c 1.654763,0 3.00866,-0.08146 3.00866,-0.181016 z"
     id="path3717"
     inkscape:connector-curvature="0" />
</svg>
